<?xml version="1.0" encoding="UTF-8" standalone="no" ?>
<!DOCTYPE svg PUBLIC "-//W3C//DTD SVG 1.1//EN" "http://www.w3.org/Graphics/SVG/1.1/DTD/svg11.dtd">
<svg xmlns="http://www.w3.org/2000/svg" xmlns:xlink="http://www.w3.org/1999/xlink" version="1.1" width="400" height="400" viewBox="0 0 400 400" xml:space="preserve">
<desc>Created with Fabric.js 3.6.2</desc>
<defs>
</defs>
<g transform="matrix(6.25 0 0 6.25 200 200)" id="Outline"  >
<path style="stroke: none; stroke-width: 1; stroke-dasharray: none; stroke-linecap: butt; stroke-dashoffset: 0; stroke-linejoin: miter; stroke-miterlimit: 4; fill: rgb(0,0,0); fill-rule: nonzero; opacity: 1;"  transform=" translate(-16, -16)" d="M 31 18 h -1.382 l 2.276 -4.553 c 0.155 -0.31 0.139 -0.678 -0.044 -0.973 S 31.347 12 31 12 h -3.087 c -0.413 -2.851 -2.541 -5.191 -5.366 -5.827 C 21.341 2.507 17.916 0 14 0 C 9.349 0 5.511 3.546 5.047 8.075 C 2.19 8.533 0 11.016 0 14 c 0 3.309 2.691 6 6 6 h 7 v -2 H 6 c -2.206 0 -4 -1.794 -4 -4 s 1.794 -4 4 -4 c 0.552 0 1 -0.447 1 -1 c 0 -3.859 3.14 -7 7 -7 c 3.219 0 6.011 2.177 6.79 5.292 c 0.1 0.4 0.436 0.698 0.846 0.75 c 2.149 0.27 3.836 1.899 4.257 3.958 H 23 c -0.477 0 -0.887 0.337 -0.98 0.804 L 20.98 18 H 19 v 2 h 1.58 l -0.561 2.804 c -0.059 0.294 0.018 0.599 0.207 0.83 C 20.417 23.865 20.7 24 21 24 h 1.719 l -1.688 6.758 c -0.116 0.461 0.11 0.94 0.54 1.146 C 21.708 31.969 21.854 32 22 32 c 0.307 0 0.606 -0.142 0.8 -0.4 l 9 -12 c 0.228 -0.303 0.264 -0.708 0.095 -1.047 C 31.725 18.214 31.379 18 31 18 z M 27.149 19.525 C 27.332 19.82 27.653 20 28 20 h 1 l -4.829 6.438 l 0.799 -3.196 c 0.075 -0.299 0.008 -0.615 -0.182 -0.857 C 24.599 22.142 24.308 22 24 22 h -1.78 l 1.6 -8 h 5.562 l -2.276 4.553 C 26.95 18.862 26.967 19.23 27.149 19.525 z" stroke-linecap="round" />
</g>
<g transform="matrix(3.13 -5.41 5.41 3.13 134.99 254.8)" id="Outline"  >
<rect style="stroke: none; stroke-width: 1; stroke-dasharray: none; stroke-linecap: butt; stroke-dashoffset: 0; stroke-linejoin: miter; stroke-miterlimit: 4; fill: rgb(0,0,0); fill-rule: nonzero; opacity: 1;"  x="-3.1965" y="-1" rx="0" ry="0" width="6.393" height="2" />
</g>
<g transform="matrix(3.12 -5.41 5.41 3.12 115.63 288.33)" id="Outline"  >
<rect style="stroke: none; stroke-width: 1; stroke-dasharray: none; stroke-linecap: butt; stroke-dashoffset: 0; stroke-linejoin: miter; stroke-miterlimit: 4; fill: rgb(0,0,0); fill-rule: nonzero; opacity: 1;"  x="-1" y="-1" rx="0" ry="0" width="2" height="2" />
</g>
<g transform="matrix(3.13 -5.41 5.41 3.13 166.24 254.8)" id="Outline"  >
<rect style="stroke: none; stroke-width: 1; stroke-dasharray: none; stroke-linecap: butt; stroke-dashoffset: 0; stroke-linejoin: miter; stroke-miterlimit: 4; fill: rgb(0,0,0); fill-rule: nonzero; opacity: 1;"  x="-3.1965" y="-1" rx="0" ry="0" width="6.393" height="2" />
</g>
<g transform="matrix(3.12 -5.41 5.41 3.12 146.88 288.33)" id="Outline"  >
<rect style="stroke: none; stroke-width: 1; stroke-dasharray: none; stroke-linecap: butt; stroke-dashoffset: 0; stroke-linejoin: miter; stroke-miterlimit: 4; fill: rgb(0,0,0); fill-rule: nonzero; opacity: 1;"  x="-1" y="-1" rx="0" ry="0" width="2" height="2" />
</g>
<g transform="matrix(3.12 -5.41 5.41 3.12 197.49 254.79)" id="Outline"  >
<rect style="stroke: none; stroke-width: 1; stroke-dasharray: none; stroke-linecap: butt; stroke-dashoffset: 0; stroke-linejoin: miter; stroke-miterlimit: 4; fill: rgb(0,0,0); fill-rule: nonzero; opacity: 1;"  x="-3.1965" y="-1" rx="0" ry="0" width="6.393" height="2" />
</g>
<g transform="matrix(3.12 -5.41 5.41 3.12 178.13 288.33)" id="Outline"  >
<rect style="stroke: none; stroke-width: 1; stroke-dasharray: none; stroke-linecap: butt; stroke-dashoffset: 0; stroke-linejoin: miter; stroke-miterlimit: 4; fill: rgb(0,0,0); fill-rule: nonzero; opacity: 1;"  x="-1" y="-1" rx="0" ry="0" width="2" height="2" />
</g>
<g transform="matrix(6.25 0 0 6.25 200 218.75)" id="Outline"  >
<rect style="stroke: none; stroke-width: 1; stroke-dasharray: none; stroke-linecap: butt; stroke-dashoffset: 0; stroke-linejoin: miter; stroke-miterlimit: 4; fill: rgb(0,0,0); fill-rule: nonzero; opacity: 1;"  x="-1" y="-1" rx="0" ry="0" width="2" height="2" />
</g>
</svg>